<svg width="16" height="16" viewBox="0 0 16 16" fill="none" xmlns="http://www.w3.org/2000/svg">
<path d="M12 3.99988C11.875 3.8749 11.7054 3.80469 11.5287 3.80469C11.3519 3.80469 11.1824 3.8749 11.0573 3.99988L8 7.05721L4.94267 3.99988C4.81765 3.8749 4.64811 3.80469 4.47133 3.80469C4.29456 3.80469 4.12502 3.8749 4 3.99988C3.87502 4.1249 3.80481 4.29444 3.80481 4.47121C3.80481 4.64799 3.87502 4.81753 4 4.94255L7.05733 7.99988L4 11.0572C3.87502 11.1822 3.80481 11.3518 3.80481 11.5285C3.80481 11.7053 3.87502 11.8749 4 11.9999C4.12502 12.1249 4.29456 12.1951 4.47133 12.1951C4.64811 12.1951 4.81765 12.1249 4.94267 11.9999L8 8.94255L11.0573 11.9999C11.1824 12.1249 11.3519 12.1951 11.5287 12.1951C11.7054 12.1951 11.875 12.1249 12 11.9999C12.125 11.8749 12.1952 11.7053 12.1952 11.5285C12.1952 11.3518 12.125 11.1822 12 11.0572L8.94267 7.99988L12 4.94255C12.125 4.81753 12.1952 4.64799 12.1952 4.47121C12.1952 4.29444 12.125 4.1249 12 3.99988Z" fill="#FF554A"/>
</svg>
